<?xml version="1.0" standalone="no"?>
<!DOCTYPE svg PUBLIC "-//W3C//DTD SVG 20010904//EN"
 "http://www.w3.org/TR/2001/REC-SVG-20010904/DTD/svg10.dtd">
<svg version="1.0" xmlns="http://www.w3.org/2000/svg"
 width="384.000000pt" height="384.000000pt" viewBox="0 0 384.000000 384.000000"
 preserveAspectRatio="xMidYMid meet">
<metadata>
Created by potrace 1.11, written by Peter Selinger 2001-2013
</metadata>
<g transform="translate(0.000000,384.000000) scale(0.100000,-0.100000)"
fill="#000000" stroke="none">
<path d="M651 3829 c-359 -26 -553 -167 -616 -449 -9 -41 -21 -138 -26 -215
-12 -186 -11 -2443 1 -2565 12 -126 32 -198 80 -297 141 -288 486 -379 824
-218 83 39 269 160 300 194 11 12 24 21 30 21 6 0 56 -34 111 -75 115 -87 245
-154 360 -187 66 -19 103 -23 210 -22 112 1 143 4 220 28 115 35 221 92 343
183 53 40 100 73 104 73 5 0 36 -23 70 -51 124 -100 306 -195 434 -225 94 -22
241 -20 326 4 143 41 262 141 328 276 48 98 68 170 80 296 13 126 12 2382 0
2570 -17 250 -61 379 -168 486 -104 103 -254 156 -495 174 -169 12 -2346 11
-2516 -1z m2631 -244 c181 -31 248 -86 297 -240 14 -44 16 -208 18 -1405 2
-862 0 -1372 -6 -1401 -20 -94 -53 -162 -100 -209 -67 -67 -109 -84 -218 -88
-111 -5 -173 11 -292 74 -75 40 -221 139 -221 150 0 3 29 39 63 82 228 277
337 558 337 867 0 200 -54 342 -174 460 -116 115 -216 155 -384 155 -210 0
-377 -102 -476 -289 -55 -105 -78 -204 -78 -341 0 -289 117 -593 334 -867 l49
-62 -88 -65 c-108 -80 -187 -120 -289 -146 -97 -25 -170 -25 -266 -1 -97 25
-193 73 -296 150 l-82 61 74 97 c176 233 279 484 305 741 25 239 -49 460 -198
593 -101 90 -208 129 -356 129 -162 0 -272 -45 -380 -154 -81 -82 -137 -184
-160 -292 -39 -182 -2 -457 90 -675 38 -91 134 -241 230 -358 l68 -84 -24 -19
c-56 -44 -168 -117 -224 -145 -91 -46 -159 -63 -254 -63 -74 0 -95 4 -146 28
-94 45 -146 117 -180 248 -14 54 -15 214 -12 1420 2 1201 4 1365 18 1409 48
152 116 208 288 239 118 22 2612 22 2733 1z m-1906 -1813 c83 -43 142 -123
170 -232 22 -88 15 -274 -16 -379 -48 -168 -133 -336 -236 -465 l-47 -60 -42
46 c-52 57 -154 206 -187 273 -71 142 -113 335 -105 490 8 180 78 290 214 341
57 21 196 14 249 -14z m1382 -7 c65 -35 96 -70 136 -155 30 -64 31 -68 30
-210 -1 -123 -5 -160 -27 -245 -43 -160 -136 -328 -270 -485 -27 -31 -28 -32
-47 -15 -39 35 -142 197 -190 298 -27 56 -61 143 -76 192 -24 79 -28 107 -28
235 -1 164 10 213 68 295 67 93 140 127 266 122 71 -2 94 -8 138 -32z"/>
</g>
</svg>
